<?xml version="1.0" standalone="no"?>
<!DOCTYPE svg PUBLIC "-//W3C//DTD SVG 20010904//EN"
 "http://www.w3.org/TR/2001/REC-SVG-20010904/DTD/svg10.dtd">
<svg version="1.0" xmlns="http://www.w3.org/2000/svg"
 width="256.000000pt" height="256.000000pt" viewBox="0 0 256.000000 256.000000"
 preserveAspectRatio="xMidYMid meet">

<g transform="translate(0.000000,256.000000) scale(0.100000,-0.100000)"
fill="#000000" stroke="none">
<path d="M0 1280 l0 -1280 1280 0 1280 0 0 1280 0 1280 -1280 0 -1280 0 0
-1280z m1380 1185 c135 -48 209 -201 166 -347 -19 -67 -85 -146 -145 -173 -39
-17 -41 -21 -41 -60 0 -23 3 -63 6 -89 l7 -46 99 0 c122 0 161 -14 177 -63 14
-41 3 -78 -31 -101 -17 -12 -47 -16 -125 -16 l-103 0 0 -32 c0 -85 62 -868 71
-902 22 -81 93 -116 182 -89 82 24 234 106 332 180 l89 68 -46 13 c-53 14 -69
39 -40 62 10 8 64 33 120 54 96 36 104 38 121 22 16 -15 18 -29 13 -139 -4
-128 -14 -154 -48 -143 -11 3 -28 19 -39 35 l-19 29 -44 -76 c-140 -247 -325
-402 -577 -486 -44 -14 -107 -44 -140 -67 -75 -51 -114 -50 -197 5 -31 21
-105 55 -163 77 -228 82 -405 234 -535 459 -24 41 -46 77 -48 80 -2 3 -8 -4
-14 -14 -23 -41 -47 -57 -69 -46 -18 10 -19 20 -17 143 3 125 4 132 24 135 27
4 215 -66 231 -85 18 -24 -1 -51 -42 -59 -19 -3 -35 -10 -35 -15 0 -12 115
-98 203 -151 90 -54 223 -108 265 -108 16 0 44 10 62 23 65 43 65 44 99 507
17 234 33 442 36 463 l5 37 -100 0 c-140 0 -170 17 -170 96 0 25 8 42 26 59
25 23 34 25 140 25 l113 0 5 43 c3 23 7 67 10 98 4 55 4 56 -28 67 -52 19
-113 78 -142 139 -72 147 1 332 152 387 52 19 151 20 204 1z"/>
<path d="M1230 2332 c-82 -36 -115 -135 -70 -209 36 -59 125 -82 191 -48 94
49 91 210 -6 251 -36 15 -89 17 -115 6z"/>
</g>
</svg>
